<?xml version="1.0" standalone="no"?>
<!DOCTYPE svg PUBLIC "-//W3C//DTD SVG 20010904//EN"
 "http://www.w3.org/TR/2001/REC-SVG-20010904/DTD/svg10.dtd">
<svg version="1.0" xmlns="http://www.w3.org/2000/svg"
 width="151.000000pt" height="151.000000pt" viewBox="0 0 151.000000 151.000000"
 preserveAspectRatio="xMidYMid meet">
<metadata>
Created by potrace 1.14, written by Peter Selinger 2001-2017
</metadata>
<g transform="translate(0.000000,151.000000) scale(0.100000,-0.100000)"
fill="#000000" stroke="none">
<path d="M1106 1289 c-9 -11 -18 -36 -21 -56 -5 -38 -9 -63 -21 -115 -3 -15
-5 -29 -4 -30 1 -2 -3 -16 -9 -31 -6 -15 -13 -42 -16 -60 -6 -30 -33 -134 -54
-202 -5 -16 -15 -50 -22 -75 -7 -25 -13 -47 -14 -50 -18 -63 -30 -102 -43
-134 l-15 -39 -23 44 c-12 24 -20 47 -17 52 2 4 0 7 -5 7 -13 0 -33 50 -26 62
4 7 2 8 -4 4 -7 -4 -12 -2 -12 4 0 6 -9 32 -21 57 -65 142 -127 335 -133 410
-6 83 -15 102 -51 112 -38 10 -92 6 -111 -10 -7 -6 -16 -32 -19 -57 -4 -26 -9
-54 -12 -62 -7 -18 -11 -36 -17 -70 -2 -14 -9 -41 -16 -60 -6 -19 -13 -45 -16
-56 -6 -30 -66 -222 -119 -379 -24 -72 -45 -139 -46 -150 -3 -41 1 -72 14 -88
16 -22 75 -28 108 -11 29 14 54 65 51 100 -1 13 3 26 8 29 6 4 8 11 5 16 -6 8
36 191 52 229 3 8 6 18 5 22 -1 4 9 41 22 82 13 41 27 90 31 107 l7 32 20 -42
c10 -23 16 -46 13 -50 -3 -5 -1 -11 3 -13 5 -1 33 -59 62 -128 30 -69 73 -161
96 -205 23 -44 45 -91 49 -105 19 -64 48 -118 68 -127 25 -11 92 -10 124 1 25
8 30 20 38 96 3 30 11 73 17 95 10 40 15 61 24 102 2 12 8 33 13 45 5 13 10
28 11 33 1 6 4 15 6 20 1 6 17 60 34 120 29 101 49 164 117 360 26 75 28 148
5 171 -21 22 -116 16 -136 -7z"/>
</g>
</svg>
